<svg width="600" height="400" viewBox="0 0 600 400" fill="none" xmlns="http://www.w3.org/2000/svg">
  <!-- Background Elements -->
  <rect width="600" height="400" rx="20" fill="url(#paint0_linear)" fill-opacity="0.1"/>
  
  <!-- Document Stack -->
  <g transform="translate(150, 80)">
    <!-- Document 1 -->
    <rect x="0" y="0" width="120" height="160" rx="8" fill="#10a37f" fill-opacity="0.2"/>
    <rect x="20" y="20" width="80" height="8" rx="4" fill="#10a37f"/>
    <rect x="20" y="40" width="60" height="8" rx="4" fill="#10a37f" fill-opacity="0.7"/>
    <rect x="20" y="60" width="70" height="8" rx="4" fill="#10a37f" fill-opacity="0.7"/>
    <rect x="20" y="80" width="50" height="8" rx="4" fill="#10a37f" fill-opacity="0.7"/>
    <rect x="20" y="100" width="80" height="8" rx="4" fill="#10a37f" fill-opacity="0.7"/>
    <rect x="20" y="120" width="60" height="8" rx="4" fill="#10a37f" fill-opacity="0.7"/>
    
    <!-- Document 2 (slightly offset) -->
    <rect x="10" y="10" width="120" height="160" rx="8" fill="#10a37f" fill-opacity="0.15"/>
    <rect x="30" y="30" width="80" height="8" rx="4" fill="#10a37f" fill-opacity="0.8"/>
    <rect x="30" y="50" width="60" height="8" rx="4" fill="#10a37f" fill-opacity="0.6"/>
    <rect x="30" y="70" width="70" height="8" rx="4" fill="#10a37f" fill-opacity="0.6"/>
    <rect x="30" y="90" width="50" height="8" rx="4" fill="#10a37f" fill-opacity="0.6"/>
    <rect x="30" y="110" width="80" height="8" rx="4" fill="#10a37f" fill-opacity="0.6"/>
    <rect x="30" y="130" width="60" height="8" rx="4" fill="#10a37f" fill-opacity="0.6"/>
    
    <!-- Document 3 (top) -->
    <rect x="20" y="20" width="120" height="160" rx="8" fill="#10a37f" fill-opacity="0.1"/>
    <rect x="40" y="40" width="80" height="8" rx="4" fill="#10a37f" fill-opacity="0.9"/>
    <rect x="40" y="60" width="60" height="8" rx="4" fill="#10a37f" fill-opacity="0.5"/>
    <rect x="40" y="80" width="70" height="8" rx="4" fill="#10a37f" fill-opacity="0.5"/>
    <rect x="40" y="100" width="50" height="8" rx="4" fill="#10a37f" fill-opacity="0.5"/>
    <rect x="40" y="120" width="80" height="8" rx="4" fill="#10a37f" fill-opacity="0.5"/>
    <rect x="40" y="140" width="60" height="8" rx="4" fill="#10a37f" fill-opacity="0.5"/>
  </g>
  
  <!-- AI Brain Icon -->
  <g transform="translate(350, 120)">
    <circle cx="80" cy="80" r="60" fill="url(#paint1_radial)" fill-opacity="0.2"/>
    <path d="M80 40C57.9086 40 40 57.9086 40 80C40 102.091 57.9086 120 80 120C102.091 120 120 102.091 120 80C120 57.9086 102.091 40 80 40ZM80 110C62.3269 110 48 95.6731 48 78C48 60.3269 62.3269 46 80 46C97.6731 46 112 60.3269 112 78C112 95.6731 97.6731 110 80 110Z" fill="#10a37f"/>
    <path d="M80 56C66.7452 56 56 66.7452 56 80C56 93.2548 66.7452 104 80 104C93.2548 104 104 93.2548 104 80C104 66.7452 93.2548 56 80 56ZM80 94C69.5066 94 61 85.4934 61 75C61 64.5066 69.5066 56 80 56C90.4934 56 99 64.5066 99 75C99 85.4934 90.4934 94 80 94Z" fill="#10a37f" fill-opacity="0.7"/>
    <path d="M80 66C72.268 66 66 72.268 66 80C66 87.732 72.268 94 80 94C87.732 94 94 87.732 94 80C94 72.268 87.732 66 80 66ZM80 84C76.6863 84 74 81.3137 74 78C74 74.6863 76.6863 72 80 72C83.3137 72 86 74.6863 86 78C86 81.3137 83.3137 84 80 84Z" fill="#10a37f" fill-opacity="0.9"/>
    <circle cx="80" cy="80" r="8" fill="#10a37f"/>
    
    <!-- Neural Network Lines -->
    <path d="M50 60L80 80L110 60" stroke="#10a37f" stroke-width="2" stroke-linecap="round"/>
    <path d="M50 100L80 80L110 100" stroke="#10a37f" stroke-width="2" stroke-linecap="round"/>
    <path d="M60 50L80 80L100 50" stroke="#10a37f" stroke-width="2" stroke-linecap="round"/>
    <path d="M60 110L80 80L100 110" stroke="#10a37f" stroke-width="2" stroke-linecap="round"/>
  </g>
  
  <!-- Decorative Elements -->
  <circle cx="100" cy="100" r="20" fill="#ff6b6b" fill-opacity="0.1"/>
  <circle cx="500" cy="300" r="30" fill="#10a37f" fill-opacity="0.1"/>
  <circle cx="450" cy="50" r="15" fill="#ff6b6b" fill-opacity="0.1"/>
  
  <!-- Gradients -->
  <defs>
    <linearGradient id="paint0_linear" x1="0" y1="0" x2="600" y2="400" gradientUnits="userSpaceOnUse">
      <stop stop-color="#10a37f" stop-opacity="0.05"/>
      <stop offset="1" stop-color="#ff6b6b" stop-opacity="0.05"/>
    </linearGradient>
    <radialGradient id="paint1_radial" cx="0" cy="0" r="1" gradientUnits="userSpaceOnUse" gradientTransform="translate(80 80) rotate(90) scale(60)">
      <stop stop-color="#10a37f" stop-opacity="0.3"/>
      <stop offset="1" stop-color="#10a37f" stop-opacity="0"/>
    </radialGradient>
  </defs>
</svg> 